<svg xmlns="http://www.w3.org/2000/svg" viewBox="0 0 64 64" fill="none">
  <rect width="64" height="64" rx="14" fill="#E3211B"/>
  <circle cx="44" cy="32" r="14" fill="#FFFFFF"/>
  <path d="M44 18C36.268 18 30 24.268 30 32C30 39.732 36.268 46 44 46C40.5 42 39 37 39 32C39 27 40.5 22 44 18Z" fill="#9E9E9E"/>
  <path d="M44 18C47.5 22 49 27 49 32C49 37 47.5 42 44 46C51.732 46 58 39.732 58 32C58 24.268 51.732 18 44 18Z" fill="#E3211B"/>
  <text x="8" y="38" fill="#FFFFFF" font-family="-apple-system, BlinkMacSystemFont, 'Segoe UI', Roboto, sans-serif" font-weight="900" font-size="20" letter-spacing="-1">B</text>
  <text x="21" y="27" fill="#FFFFFF" font-family="-apple-system, BlinkMacSystemFont, 'Segoe UI', Roboto, sans-serif" font-weight="600" font-size="9">TM</text>
</svg>
